<svg width="1280" height="420" viewBox="0 0 1280 420" fill="none" xmlns="http://www.w3.org/2000/svg" role="img" aria-labelledby="title desc">
  <title id="title">modal-uv</title>
  <desc id="desc">A dark banner for modal-uv, showing a prism-style green and purple M over U logo and the tagline local dev loop, Modal compute.</desc>
  <defs>
    <linearGradient id="bg" x1="0" y1="0" x2="1280" y2="420" gradientUnits="userSpaceOnUse">
      <stop stop-color="#0F0F0F"/>
      <stop offset="0.48" stop-color="#17111E"/>
      <stop offset="1" stop-color="#261230"/>
    </linearGradient>
    <linearGradient id="modalMint" x1="105" y1="82" x2="340" y2="292" gradientUnits="userSpaceOnUse">
      <stop stop-color="#D7FF64"/>
      <stop offset="0.42" stop-color="#7BFFB2"/>
      <stop offset="1" stop-color="#31D794"/>
    </linearGradient>
    <linearGradient id="logoPurple" x1="112" y1="84" x2="318" y2="326" gradientUnits="userSpaceOnUse">
      <stop stop-color="#DE5FE9"/>
      <stop offset="1" stop-color="#7BFFB2"/>
    </linearGradient>
    <filter id="softGlow" x="-40" y="-40" width="1360" height="500" filterUnits="userSpaceOnUse" color-interpolation-filters="sRGB">
      <feGaussianBlur stdDeviation="22" result="blur"/>
      <feColorMatrix in="blur" type="matrix" values="0 0 0 0 0.482 0 0 0 0 1 0 0 0 0 0.698 0 0 0 0.34 0"/>
      <feBlend in="SourceGraphic" mode="normal"/>
    </filter>
    <filter id="textShadow" x="330" y="90" width="600" height="190" filterUnits="userSpaceOnUse" color-interpolation-filters="sRGB">
      <feDropShadow dx="0" dy="12" stdDeviation="14" flood-color="#000000" flood-opacity="0.42"/>
    </filter>
  </defs>

  <rect width="1280" height="420" rx="38" fill="url(#bg)"/>
  <path d="M58 330C192 248 232 80 418 102C558 119 591 257 728 244C897 228 910 89 1139 63" stroke="#7BFFB2" stroke-opacity="0.16" stroke-width="2"/>
  <path d="M1220 89C1081 164 1064 316 872 306C729 299 694 182 555 191C378 203 333 332 119 350" stroke="#DE5FE9" stroke-opacity="0.16" stroke-width="2"/>
  <circle cx="242" cy="174" r="116" fill="#7BFFB2" opacity="0.08" filter="url(#softGlow)"/>

  <g transform="translate(106 54)">
    <path d="M63 44C66 30 80 22 93 27L124 39C134 43 141 53 141 64V159C141 171 130 179 119 175L89 164C79 160 72 151 72 140V93L55 171C52 185 38 193 25 188L-4 177C-16 172 -17 155 -6 148L25 158L63 44Z" fill="url(#modalMint)"/>
    <path d="M167 44C170 30 184 22 197 27L228 39C238 43 245 53 245 64V159C245 171 234 179 223 175L193 164C183 160 176 151 176 140V93L159 171C156 185 142 193 129 188L100 177C88 172 87 155 98 148L129 158L167 44Z" fill="url(#logoPurple)"/>
    <path d="M93 27L124 39C134 43 141 53 141 64V159C141 171 130 179 119 175L89 164C79 160 72 151 72 140V93L93 27Z" fill="#D7FF64" opacity="0.24"/>
    <path d="M197 27L228 39C238 43 245 53 245 64V159C245 171 234 179 223 175L193 164C183 160 176 151 176 140V93L197 27Z" fill="#0F0F0F" opacity="0.16"/>

    <path d="M69 202C71 189 84 181 96 185L125 195C135 198 142 208 142 219V249C142 260 149 270 160 273C171 270 178 260 178 249V201C178 189 190 181 202 185L233 196C243 200 250 209 250 220V259C250 306 210 335 160 319C109 335 70 306 70 259V218L45 209C33 205 31 188 42 181L69 202Z" fill="url(#logoPurple)" opacity="0.96"/>
    <path d="M69 202C71 189 84 181 96 185L125 195C135 198 142 208 142 219V249C142 260 149 270 160 273V319C109 335 70 306 70 259V218L45 209C33 205 31 188 42 181L69 202Z" fill="url(#modalMint)" opacity="0.9"/>
    <path d="M142 249C142 260 149 270 160 273C171 270 178 260 178 249" stroke="#D7FF64" stroke-width="10" stroke-linecap="round" opacity="0.34"/>
  </g>

  <g filter="url(#textShadow)">
    <text x="430" y="191" fill="#FFFFFF" font-family="Inter, ui-sans-serif, system-ui, -apple-system, BlinkMacSystemFont, 'Segoe UI', sans-serif" font-size="78" font-weight="800" letter-spacing="-3">modal<tspan fill="#7BFFB2">-</tspan><tspan fill="#D7FF64">uv</tspan></text>
    <text x="434" y="238" fill="#CFE8DA" font-family="Inter, ui-sans-serif, system-ui, -apple-system, BlinkMacSystemFont, 'Segoe UI', sans-serif" font-size="28" font-weight="600" letter-spacing="0.4">local dev loop, Modal compute</text>
  </g>

  <g transform="translate(434 270)">
    <rect x="0" y="0" width="95" height="34" rx="17" fill="#7BFFB2" fill-opacity="0.13" stroke="#7BFFB2" stroke-opacity="0.42"/>
    <text x="22" y="23" fill="#7BFFB2" font-family="ui-monospace, SFMono-Regular, Menlo, Monaco, Consolas, monospace" font-size="15" font-weight="700">uv run</text>
    <rect x="112" y="0" width="114" height="34" rx="17" fill="#DE5FE9" fill-opacity="0.12" stroke="#DE5FE9" stroke-opacity="0.42"/>
    <text x="134" y="23" fill="#F1B6F6" font-family="ui-monospace, SFMono-Regular, Menlo, Monaco, Consolas, monospace" font-size="15" font-weight="700">shell exec</text>
    <rect x="244" y="0" width="190" height="34" rx="17" fill="#D7FF64" fill-opacity="0.11" stroke="#D7FF64" stroke-opacity="0.38"/>
    <text x="339" y="23" text-anchor="middle" fill="#E7FF9A" font-family="ui-monospace, SFMono-Regular, Menlo, Monaco, Consolas, monospace" font-size="15" font-weight="700">agent-friendly sync</text>
  </g>

</svg>
