<svg width="1280" height="420" viewBox="0 0 1280 420" fill="none" xmlns="http://www.w3.org/2000/svg" role="img" aria-labelledby="title desc">
  <title id="title">modal-uv</title>
  <desc id="desc">A dark banner for modal-uv, showing Modal-inspired mint prisms, uv-inspired lime and purple blocks, and the tagline local dev loop, Modal compute.</desc>
  <defs>
    <linearGradient id="bg" x1="0" y1="0" x2="1280" y2="420" gradientUnits="userSpaceOnUse">
      <stop stop-color="#0F0F0F"/>
      <stop offset="0.48" stop-color="#17111E"/>
      <stop offset="1" stop-color="#261230"/>
    </linearGradient>
    <linearGradient id="modalMint" x1="105" y1="82" x2="340" y2="292" gradientUnits="userSpaceOnUse">
      <stop stop-color="#D7FF64"/>
      <stop offset="0.42" stop-color="#7BFFB2"/>
      <stop offset="1" stop-color="#31D794"/>
    </linearGradient>
    <linearGradient id="uvGlow" x1="900" y1="80" x2="1148" y2="324" gradientUnits="userSpaceOnUse">
      <stop stop-color="#D7FF64"/>
      <stop offset="1" stop-color="#DE5FE9"/>
    </linearGradient>
    <filter id="softGlow" x="-40" y="-40" width="1360" height="500" filterUnits="userSpaceOnUse" color-interpolation-filters="sRGB">
      <feGaussianBlur stdDeviation="22" result="blur"/>
      <feColorMatrix in="blur" type="matrix" values="0 0 0 0 0.482 0 0 0 0 1 0 0 0 0 0.698 0 0 0 0.34 0"/>
      <feBlend in="SourceGraphic" mode="normal"/>
    </filter>
    <filter id="textShadow" x="330" y="90" width="600" height="190" filterUnits="userSpaceOnUse" color-interpolation-filters="sRGB">
      <feDropShadow dx="0" dy="12" stdDeviation="14" flood-color="#000000" flood-opacity="0.42"/>
    </filter>
  </defs>

  <rect width="1280" height="420" rx="38" fill="url(#bg)"/>
  <path d="M58 330C192 248 232 80 418 102C558 119 591 257 728 244C897 228 910 89 1139 63" stroke="#7BFFB2" stroke-opacity="0.16" stroke-width="2"/>
  <path d="M1220 89C1081 164 1064 316 872 306C729 299 694 182 555 191C378 203 333 332 119 350" stroke="#DE5FE9" stroke-opacity="0.16" stroke-width="2"/>
  <circle cx="242" cy="174" r="116" fill="#7BFFB2" opacity="0.08" filter="url(#softGlow)"/>
  <circle cx="1010" cy="210" r="132" fill="#DE5FE9" opacity="0.12"/>

  <g transform="translate(96 82)">
    <path d="M34 218L77 38C80 25 93 17 106 22L147 37C157 41 164 51 164 62V236C164 248 153 256 142 252L101 239C91 236 84 226 84 216V117L59 230C56 244 42 252 29 247L-6 234C-18 229 -20 212 -9 204L34 218Z" fill="url(#modalMint)"/>
    <path d="M157 218L200 38C203 25 216 17 229 22L270 37C280 41 287 51 287 62V236C287 248 276 256 265 252L224 239C214 236 207 226 207 216V117L182 230C179 244 165 252 152 247L117 234C105 229 103 212 114 204L157 218Z" fill="url(#modalMint)" opacity="0.88"/>
    <path d="M106 22L147 37C157 41 164 51 164 62V236C164 248 153 256 142 252L101 239C91 236 84 226 84 216V117L106 22Z" fill="#D7FF64" opacity="0.2"/>
    <path d="M229 22L270 37C280 41 287 51 287 62V236C287 248 276 256 265 252L224 239C214 236 207 226 207 216V117L229 22Z" fill="#D7FF64" opacity="0.2"/>
  </g>

  <g filter="url(#textShadow)">
    <text x="430" y="191" fill="#FFFFFF" font-family="Inter, ui-sans-serif, system-ui, -apple-system, BlinkMacSystemFont, 'Segoe UI', sans-serif" font-size="78" font-weight="800" letter-spacing="-3">modal<tspan fill="#7BFFB2">-</tspan><tspan fill="#D7FF64">uv</tspan></text>
    <text x="434" y="238" fill="#CFE8DA" font-family="Inter, ui-sans-serif, system-ui, -apple-system, BlinkMacSystemFont, 'Segoe UI', sans-serif" font-size="28" font-weight="600" letter-spacing="0.4">local dev loop, Modal compute</text>
  </g>

  <g transform="translate(434 270)">
    <rect x="0" y="0" width="95" height="34" rx="17" fill="#7BFFB2" fill-opacity="0.13" stroke="#7BFFB2" stroke-opacity="0.42"/>
    <text x="22" y="23" fill="#7BFFB2" font-family="ui-monospace, SFMono-Regular, Menlo, Monaco, Consolas, monospace" font-size="15" font-weight="700">uv run</text>
    <rect x="112" y="0" width="114" height="34" rx="17" fill="#DE5FE9" fill-opacity="0.12" stroke="#DE5FE9" stroke-opacity="0.42"/>
    <text x="134" y="23" fill="#F1B6F6" font-family="ui-monospace, SFMono-Regular, Menlo, Monaco, Consolas, monospace" font-size="15" font-weight="700">shell exec</text>
    <rect x="244" y="0" width="190" height="34" rx="17" fill="#D7FF64" fill-opacity="0.11" stroke="#D7FF64" stroke-opacity="0.38"/>
    <text x="339" y="23" text-anchor="middle" fill="#E7FF9A" font-family="ui-monospace, SFMono-Regular, Menlo, Monaco, Consolas, monospace" font-size="15" font-weight="700">agent-friendly sync</text>
  </g>

  <g transform="translate(904 78)">
    <circle cx="172" cy="164" r="116" fill="#DE5FE9" opacity="0.1"/>
    <circle cx="172" cy="164" r="82" fill="#7BFFB2" opacity="0.06"/>
    <path d="M83 137C99 73 166 37 228 62C263 76 289 103 301 138" stroke="#7BFFB2" stroke-width="12" stroke-linecap="round" opacity="0.88"/>
    <path d="M297 190C278 252 211 286 151 259C118 244 94 217 83 183" stroke="#DE5FE9" stroke-width="12" stroke-linecap="round" opacity="0.86"/>
    <path d="M297 139L315 146L300 160Z" fill="#7BFFB2" opacity="0.88"/>
    <path d="M82 181L64 174L79 160Z" fill="#DE5FE9" opacity="0.86"/>

    <rect x="122" y="112" width="100" height="86" rx="26" fill="#111111" stroke="#D7FF64" stroke-width="3"/>
    <rect x="140" y="128" width="64" height="34" rx="17" fill="url(#uvGlow)" opacity="0.92"/>
    <circle cx="153" cy="146" r="5" fill="#0F0F0F" opacity="0.72"/>
    <circle cx="191" cy="146" r="5" fill="#0F0F0F" opacity="0.72"/>
    <path d="M158 176C166 182 178 182 186 176" stroke="#7BFFB2" stroke-width="4" stroke-linecap="round"/>

    <circle cx="77" cy="159" r="23" fill="#D7FF64" opacity="0.92"/>
    <circle cx="269" cy="159" r="23" fill="#7BFFB2" opacity="0.9"/>
    <circle cx="173" cy="59" r="20" fill="#DE5FE9" opacity="0.9"/>
    <circle cx="173" cy="269" r="20" fill="#D7FF64" opacity="0.88"/>
    <path d="M99 159H122" stroke="#D7FF64" stroke-width="5" stroke-linecap="round" opacity="0.72"/>
    <path d="M222 159H246" stroke="#7BFFB2" stroke-width="5" stroke-linecap="round" opacity="0.72"/>
    <path d="M173 79V111" stroke="#DE5FE9" stroke-width="5" stroke-linecap="round" opacity="0.72"/>
    <path d="M173 198V249" stroke="#D7FF64" stroke-width="5" stroke-linecap="round" opacity="0.72"/>
  </g>
</svg>
